<mxfile host="app.diagrams.net" modified="2024-03-17T18:36:39.727Z" agent="Mozilla/5.0 (Windows NT 10.0; Win64; x64) AppleWebKit/537.36 (KHTML, like Gecko) Chrome/122.0.0.0 Safari/537.36" etag="AL8JA6rSYAhmq6g4fGDm" version="24.0.2" type="device">
  <diagram name="Page-1" id="Hbf_Hnbh_0U65sj37iZy">
    <mxGraphModel dx="1434" dy="780" grid="1" gridSize="10" guides="1" tooltips="1" connect="1" arrows="1" fold="1" page="1" pageScale="1" pageWidth="4000" pageHeight="4000" math="0" shadow="0">
      <root>
        <mxCell id="0" />
        <mxCell id="1" parent="0" />
        <mxCell id="PXhXnekIFpQiZYrbAUHN-3" style="edgeStyle=orthogonalEdgeStyle;rounded=0;orthogonalLoop=1;jettySize=auto;html=1;exitX=0;exitY=0.5;exitDx=0;exitDy=0;" parent="1" source="PXhXnekIFpQiZYrbAUHN-1" target="PXhXnekIFpQiZYrbAUHN-2" edge="1">
          <mxGeometry relative="1" as="geometry" />
        </mxCell>
        <mxCell id="PXhXnekIFpQiZYrbAUHN-21" style="edgeStyle=orthogonalEdgeStyle;rounded=0;orthogonalLoop=1;jettySize=auto;html=1;exitX=0;exitY=0.5;exitDx=0;exitDy=0;entryX=0.5;entryY=0;entryDx=0;entryDy=0;" parent="1" source="PXhXnekIFpQiZYrbAUHN-1" target="PXhXnekIFpQiZYrbAUHN-4" edge="1">
          <mxGeometry relative="1" as="geometry" />
        </mxCell>
        <mxCell id="PXhXnekIFpQiZYrbAUHN-22" style="edgeStyle=orthogonalEdgeStyle;rounded=0;orthogonalLoop=1;jettySize=auto;html=1;exitX=0;exitY=0.5;exitDx=0;exitDy=0;entryX=0.5;entryY=0;entryDx=0;entryDy=0;" parent="1" source="PXhXnekIFpQiZYrbAUHN-1" target="PXhXnekIFpQiZYrbAUHN-5" edge="1">
          <mxGeometry relative="1" as="geometry" />
        </mxCell>
        <mxCell id="PXhXnekIFpQiZYrbAUHN-23" style="edgeStyle=orthogonalEdgeStyle;rounded=0;orthogonalLoop=1;jettySize=auto;html=1;exitX=0.5;exitY=1;exitDx=0;exitDy=0;entryX=0.5;entryY=0;entryDx=0;entryDy=0;" parent="1" source="PXhXnekIFpQiZYrbAUHN-1" target="PXhXnekIFpQiZYrbAUHN-11" edge="1">
          <mxGeometry relative="1" as="geometry" />
        </mxCell>
        <mxCell id="PXhXnekIFpQiZYrbAUHN-24" style="edgeStyle=orthogonalEdgeStyle;rounded=0;orthogonalLoop=1;jettySize=auto;html=1;exitX=0.5;exitY=1;exitDx=0;exitDy=0;" parent="1" source="PXhXnekIFpQiZYrbAUHN-1" target="PXhXnekIFpQiZYrbAUHN-12" edge="1">
          <mxGeometry relative="1" as="geometry" />
        </mxCell>
        <mxCell id="PXhXnekIFpQiZYrbAUHN-26" style="edgeStyle=orthogonalEdgeStyle;rounded=0;orthogonalLoop=1;jettySize=auto;html=1;exitX=0;exitY=1;exitDx=0;exitDy=0;entryX=0.5;entryY=0;entryDx=0;entryDy=0;" parent="1" source="PXhXnekIFpQiZYrbAUHN-1" target="PXhXnekIFpQiZYrbAUHN-10" edge="1">
          <mxGeometry relative="1" as="geometry" />
        </mxCell>
        <mxCell id="PXhXnekIFpQiZYrbAUHN-27" style="edgeStyle=orthogonalEdgeStyle;rounded=0;orthogonalLoop=1;jettySize=auto;html=1;exitX=0;exitY=1;exitDx=0;exitDy=0;entryX=0.5;entryY=0;entryDx=0;entryDy=0;" parent="1" source="PXhXnekIFpQiZYrbAUHN-1" target="PXhXnekIFpQiZYrbAUHN-9" edge="1">
          <mxGeometry relative="1" as="geometry" />
        </mxCell>
        <mxCell id="PXhXnekIFpQiZYrbAUHN-28" style="edgeStyle=orthogonalEdgeStyle;rounded=0;orthogonalLoop=1;jettySize=auto;html=1;exitX=0;exitY=0.5;exitDx=0;exitDy=0;" parent="1" source="PXhXnekIFpQiZYrbAUHN-1" target="PXhXnekIFpQiZYrbAUHN-6" edge="1">
          <mxGeometry relative="1" as="geometry" />
        </mxCell>
        <mxCell id="PXhXnekIFpQiZYrbAUHN-29" style="edgeStyle=orthogonalEdgeStyle;rounded=0;orthogonalLoop=1;jettySize=auto;html=1;exitX=0;exitY=1;exitDx=0;exitDy=0;entryX=0.5;entryY=0;entryDx=0;entryDy=0;" parent="1" source="PXhXnekIFpQiZYrbAUHN-1" target="PXhXnekIFpQiZYrbAUHN-7" edge="1">
          <mxGeometry relative="1" as="geometry" />
        </mxCell>
        <mxCell id="PXhXnekIFpQiZYrbAUHN-30" style="edgeStyle=orthogonalEdgeStyle;rounded=0;orthogonalLoop=1;jettySize=auto;html=1;exitX=1;exitY=1;exitDx=0;exitDy=0;" parent="1" source="PXhXnekIFpQiZYrbAUHN-1" target="PXhXnekIFpQiZYrbAUHN-13" edge="1">
          <mxGeometry relative="1" as="geometry" />
        </mxCell>
        <mxCell id="PXhXnekIFpQiZYrbAUHN-31" style="edgeStyle=orthogonalEdgeStyle;rounded=0;orthogonalLoop=1;jettySize=auto;html=1;exitX=1;exitY=1;exitDx=0;exitDy=0;" parent="1" source="PXhXnekIFpQiZYrbAUHN-1" target="PXhXnekIFpQiZYrbAUHN-15" edge="1">
          <mxGeometry relative="1" as="geometry" />
        </mxCell>
        <mxCell id="PXhXnekIFpQiZYrbAUHN-32" style="edgeStyle=orthogonalEdgeStyle;rounded=0;orthogonalLoop=1;jettySize=auto;html=1;exitX=1;exitY=1;exitDx=0;exitDy=0;entryX=0.5;entryY=0;entryDx=0;entryDy=0;" parent="1" source="PXhXnekIFpQiZYrbAUHN-1" target="PXhXnekIFpQiZYrbAUHN-16" edge="1">
          <mxGeometry relative="1" as="geometry" />
        </mxCell>
        <mxCell id="PXhXnekIFpQiZYrbAUHN-33" style="edgeStyle=orthogonalEdgeStyle;rounded=0;orthogonalLoop=1;jettySize=auto;html=1;exitX=1;exitY=0.5;exitDx=0;exitDy=0;entryX=0.5;entryY=0;entryDx=0;entryDy=0;" parent="1" source="PXhXnekIFpQiZYrbAUHN-1" target="PXhXnekIFpQiZYrbAUHN-17" edge="1">
          <mxGeometry relative="1" as="geometry" />
        </mxCell>
        <mxCell id="PXhXnekIFpQiZYrbAUHN-34" style="edgeStyle=orthogonalEdgeStyle;rounded=0;orthogonalLoop=1;jettySize=auto;html=1;exitX=1;exitY=0.5;exitDx=0;exitDy=0;" parent="1" source="PXhXnekIFpQiZYrbAUHN-1" target="PXhXnekIFpQiZYrbAUHN-18" edge="1">
          <mxGeometry relative="1" as="geometry" />
        </mxCell>
        <mxCell id="PXhXnekIFpQiZYrbAUHN-35" style="edgeStyle=orthogonalEdgeStyle;rounded=0;orthogonalLoop=1;jettySize=auto;html=1;exitX=1;exitY=0.5;exitDx=0;exitDy=0;entryX=0.5;entryY=0;entryDx=0;entryDy=0;" parent="1" source="PXhXnekIFpQiZYrbAUHN-1" target="PXhXnekIFpQiZYrbAUHN-19" edge="1">
          <mxGeometry relative="1" as="geometry" />
        </mxCell>
        <mxCell id="PXhXnekIFpQiZYrbAUHN-36" style="edgeStyle=orthogonalEdgeStyle;rounded=0;orthogonalLoop=1;jettySize=auto;html=1;exitX=1;exitY=0.5;exitDx=0;exitDy=0;entryX=0.5;entryY=0;entryDx=0;entryDy=0;" parent="1" source="PXhXnekIFpQiZYrbAUHN-1" target="PXhXnekIFpQiZYrbAUHN-20" edge="1">
          <mxGeometry relative="1" as="geometry" />
        </mxCell>
        <mxCell id="PXhXnekIFpQiZYrbAUHN-1" value="switch(&lt;br&gt;view.getID)" style="ellipse;whiteSpace=wrap;html=1;aspect=fixed;fillColor=#dae8fc;strokeColor=#6c8ebf;" parent="1" vertex="1">
          <mxGeometry x="670" y="690" width="80" height="80" as="geometry" />
        </mxCell>
        <mxCell id="PXhXnekIFpQiZYrbAUHN-54" style="edgeStyle=orthogonalEdgeStyle;rounded=0;orthogonalLoop=1;jettySize=auto;html=1;exitX=0.5;exitY=1;exitDx=0;exitDy=0;entryX=0.5;entryY=0;entryDx=0;entryDy=0;" parent="1" source="PXhXnekIFpQiZYrbAUHN-2" target="PXhXnekIFpQiZYrbAUHN-38" edge="1">
          <mxGeometry relative="1" as="geometry" />
        </mxCell>
        <mxCell id="PXhXnekIFpQiZYrbAUHN-2" value="case 0" style="ellipse;whiteSpace=wrap;html=1;aspect=fixed;fillColor=#dae8fc;strokeColor=#6c8ebf;" parent="1" vertex="1">
          <mxGeometry y="800" width="80" height="80" as="geometry" />
        </mxCell>
        <mxCell id="PXhXnekIFpQiZYrbAUHN-55" value="" style="edgeStyle=orthogonalEdgeStyle;rounded=0;orthogonalLoop=1;jettySize=auto;html=1;" parent="1" source="PXhXnekIFpQiZYrbAUHN-4" target="PXhXnekIFpQiZYrbAUHN-39" edge="1">
          <mxGeometry relative="1" as="geometry" />
        </mxCell>
        <mxCell id="PXhXnekIFpQiZYrbAUHN-4" value="case 1" style="ellipse;whiteSpace=wrap;html=1;aspect=fixed;fillColor=#dae8fc;strokeColor=#6c8ebf;" parent="1" vertex="1">
          <mxGeometry x="90" y="800" width="80" height="80" as="geometry" />
        </mxCell>
        <mxCell id="PXhXnekIFpQiZYrbAUHN-56" value="" style="edgeStyle=orthogonalEdgeStyle;rounded=0;orthogonalLoop=1;jettySize=auto;html=1;" parent="1" source="PXhXnekIFpQiZYrbAUHN-5" target="PXhXnekIFpQiZYrbAUHN-40" edge="1">
          <mxGeometry relative="1" as="geometry" />
        </mxCell>
        <mxCell id="PXhXnekIFpQiZYrbAUHN-5" value="case 2" style="ellipse;whiteSpace=wrap;html=1;aspect=fixed;fillColor=#dae8fc;strokeColor=#6c8ebf;" parent="1" vertex="1">
          <mxGeometry x="180" y="800" width="80" height="80" as="geometry" />
        </mxCell>
        <mxCell id="PXhXnekIFpQiZYrbAUHN-57" value="" style="edgeStyle=orthogonalEdgeStyle;rounded=0;orthogonalLoop=1;jettySize=auto;html=1;" parent="1" source="PXhXnekIFpQiZYrbAUHN-6" target="PXhXnekIFpQiZYrbAUHN-41" edge="1">
          <mxGeometry relative="1" as="geometry" />
        </mxCell>
        <mxCell id="PXhXnekIFpQiZYrbAUHN-6" value="case 0" style="ellipse;whiteSpace=wrap;html=1;aspect=fixed;fillColor=#dae8fc;strokeColor=#6c8ebf;" parent="1" vertex="1">
          <mxGeometry x="270" y="800" width="80" height="80" as="geometry" />
        </mxCell>
        <mxCell id="PXhXnekIFpQiZYrbAUHN-58" value="" style="edgeStyle=orthogonalEdgeStyle;rounded=0;orthogonalLoop=1;jettySize=auto;html=1;" parent="1" source="PXhXnekIFpQiZYrbAUHN-7" target="PXhXnekIFpQiZYrbAUHN-42" edge="1">
          <mxGeometry relative="1" as="geometry" />
        </mxCell>
        <mxCell id="PXhXnekIFpQiZYrbAUHN-7" value="case 4" style="ellipse;whiteSpace=wrap;html=1;aspect=fixed;fillColor=#dae8fc;strokeColor=#6c8ebf;" parent="1" vertex="1">
          <mxGeometry x="360" y="800" width="80" height="80" as="geometry" />
        </mxCell>
        <mxCell id="PXhXnekIFpQiZYrbAUHN-59" value="" style="edgeStyle=orthogonalEdgeStyle;rounded=0;orthogonalLoop=1;jettySize=auto;html=1;" parent="1" source="PXhXnekIFpQiZYrbAUHN-9" target="PXhXnekIFpQiZYrbAUHN-43" edge="1">
          <mxGeometry relative="1" as="geometry" />
        </mxCell>
        <mxCell id="PXhXnekIFpQiZYrbAUHN-9" value="case 5" style="ellipse;whiteSpace=wrap;html=1;aspect=fixed;fillColor=#dae8fc;strokeColor=#6c8ebf;" parent="1" vertex="1">
          <mxGeometry x="450" y="800" width="80" height="80" as="geometry" />
        </mxCell>
        <mxCell id="PXhXnekIFpQiZYrbAUHN-60" value="" style="edgeStyle=orthogonalEdgeStyle;rounded=0;orthogonalLoop=1;jettySize=auto;html=1;" parent="1" source="PXhXnekIFpQiZYrbAUHN-10" target="PXhXnekIFpQiZYrbAUHN-44" edge="1">
          <mxGeometry relative="1" as="geometry" />
        </mxCell>
        <mxCell id="PXhXnekIFpQiZYrbAUHN-10" value="case 6" style="ellipse;whiteSpace=wrap;html=1;aspect=fixed;fillColor=#dae8fc;strokeColor=#6c8ebf;" parent="1" vertex="1">
          <mxGeometry x="540" y="800" width="80" height="80" as="geometry" />
        </mxCell>
        <mxCell id="PXhXnekIFpQiZYrbAUHN-61" value="" style="edgeStyle=orthogonalEdgeStyle;rounded=0;orthogonalLoop=1;jettySize=auto;html=1;" parent="1" source="PXhXnekIFpQiZYrbAUHN-11" target="PXhXnekIFpQiZYrbAUHN-45" edge="1">
          <mxGeometry relative="1" as="geometry" />
        </mxCell>
        <mxCell id="PXhXnekIFpQiZYrbAUHN-11" value="case 7" style="ellipse;whiteSpace=wrap;html=1;aspect=fixed;fillColor=#dae8fc;strokeColor=#6c8ebf;" parent="1" vertex="1">
          <mxGeometry x="630" y="800" width="80" height="80" as="geometry" />
        </mxCell>
        <mxCell id="PXhXnekIFpQiZYrbAUHN-62" value="" style="edgeStyle=orthogonalEdgeStyle;rounded=0;orthogonalLoop=1;jettySize=auto;html=1;" parent="1" source="PXhXnekIFpQiZYrbAUHN-12" target="PXhXnekIFpQiZYrbAUHN-46" edge="1">
          <mxGeometry relative="1" as="geometry" />
        </mxCell>
        <mxCell id="PXhXnekIFpQiZYrbAUHN-12" value="case 8" style="ellipse;whiteSpace=wrap;html=1;aspect=fixed;fillColor=#dae8fc;strokeColor=#6c8ebf;" parent="1" vertex="1">
          <mxGeometry x="720" y="800" width="80" height="80" as="geometry" />
        </mxCell>
        <mxCell id="PXhXnekIFpQiZYrbAUHN-63" value="" style="edgeStyle=orthogonalEdgeStyle;rounded=0;orthogonalLoop=1;jettySize=auto;html=1;" parent="1" source="PXhXnekIFpQiZYrbAUHN-13" target="PXhXnekIFpQiZYrbAUHN-47" edge="1">
          <mxGeometry relative="1" as="geometry" />
        </mxCell>
        <mxCell id="PXhXnekIFpQiZYrbAUHN-13" value="case 9" style="ellipse;whiteSpace=wrap;html=1;aspect=fixed;fillColor=#dae8fc;strokeColor=#6c8ebf;" parent="1" vertex="1">
          <mxGeometry x="810" y="800" width="80" height="80" as="geometry" />
        </mxCell>
        <mxCell id="PXhXnekIFpQiZYrbAUHN-64" value="" style="edgeStyle=orthogonalEdgeStyle;rounded=0;orthogonalLoop=1;jettySize=auto;html=1;" parent="1" source="PXhXnekIFpQiZYrbAUHN-15" target="PXhXnekIFpQiZYrbAUHN-48" edge="1">
          <mxGeometry relative="1" as="geometry" />
        </mxCell>
        <mxCell id="PXhXnekIFpQiZYrbAUHN-15" value="case &#39;+&#39;" style="ellipse;whiteSpace=wrap;html=1;aspect=fixed;fillColor=#dae8fc;strokeColor=#6c8ebf;" parent="1" vertex="1">
          <mxGeometry x="900" y="800" width="80" height="80" as="geometry" />
        </mxCell>
        <mxCell id="PXhXnekIFpQiZYrbAUHN-65" value="" style="edgeStyle=orthogonalEdgeStyle;rounded=0;orthogonalLoop=1;jettySize=auto;html=1;" parent="1" source="PXhXnekIFpQiZYrbAUHN-16" target="PXhXnekIFpQiZYrbAUHN-49" edge="1">
          <mxGeometry relative="1" as="geometry" />
        </mxCell>
        <mxCell id="PXhXnekIFpQiZYrbAUHN-16" value="case &#39;-&#39;" style="ellipse;whiteSpace=wrap;html=1;aspect=fixed;fillColor=#dae8fc;strokeColor=#6c8ebf;" parent="1" vertex="1">
          <mxGeometry x="990" y="800" width="80" height="80" as="geometry" />
        </mxCell>
        <mxCell id="PXhXnekIFpQiZYrbAUHN-66" value="" style="edgeStyle=orthogonalEdgeStyle;rounded=0;orthogonalLoop=1;jettySize=auto;html=1;" parent="1" source="PXhXnekIFpQiZYrbAUHN-17" target="PXhXnekIFpQiZYrbAUHN-50" edge="1">
          <mxGeometry relative="1" as="geometry" />
        </mxCell>
        <mxCell id="PXhXnekIFpQiZYrbAUHN-17" value="case &#39;/&#39;" style="ellipse;whiteSpace=wrap;html=1;aspect=fixed;fillColor=#dae8fc;strokeColor=#6c8ebf;" parent="1" vertex="1">
          <mxGeometry x="1080" y="800" width="80" height="80" as="geometry" />
        </mxCell>
        <mxCell id="PXhXnekIFpQiZYrbAUHN-67" value="" style="edgeStyle=orthogonalEdgeStyle;rounded=0;orthogonalLoop=1;jettySize=auto;html=1;" parent="1" source="PXhXnekIFpQiZYrbAUHN-18" target="PXhXnekIFpQiZYrbAUHN-51" edge="1">
          <mxGeometry relative="1" as="geometry" />
        </mxCell>
        <mxCell id="PXhXnekIFpQiZYrbAUHN-18" value="case &#39;*&#39;" style="ellipse;whiteSpace=wrap;html=1;aspect=fixed;fillColor=#dae8fc;strokeColor=#6c8ebf;" parent="1" vertex="1">
          <mxGeometry x="1170" y="800" width="80" height="80" as="geometry" />
        </mxCell>
        <mxCell id="PXhXnekIFpQiZYrbAUHN-68" value="" style="edgeStyle=orthogonalEdgeStyle;rounded=0;orthogonalLoop=1;jettySize=auto;html=1;" parent="1" source="PXhXnekIFpQiZYrbAUHN-19" target="PXhXnekIFpQiZYrbAUHN-52" edge="1">
          <mxGeometry relative="1" as="geometry" />
        </mxCell>
        <mxCell id="PXhXnekIFpQiZYrbAUHN-19" value="case &#39;clear&#39;" style="ellipse;whiteSpace=wrap;html=1;aspect=fixed;fillColor=#dae8fc;strokeColor=#6c8ebf;" parent="1" vertex="1">
          <mxGeometry x="1260" y="800" width="80" height="80" as="geometry" />
        </mxCell>
        <mxCell id="PXhXnekIFpQiZYrbAUHN-69" value="" style="edgeStyle=orthogonalEdgeStyle;rounded=0;orthogonalLoop=1;jettySize=auto;html=1;" parent="1" source="PXhXnekIFpQiZYrbAUHN-20" target="PXhXnekIFpQiZYrbAUHN-53" edge="1">
          <mxGeometry relative="1" as="geometry" />
        </mxCell>
        <mxCell id="PXhXnekIFpQiZYrbAUHN-20" value="case &#39;=&#39;" style="ellipse;whiteSpace=wrap;html=1;aspect=fixed;fillColor=#dae8fc;strokeColor=#6c8ebf;" parent="1" vertex="1">
          <mxGeometry x="1350" y="800" width="80" height="80" as="geometry" />
        </mxCell>
        <mxCell id="PXhXnekIFpQiZYrbAUHN-90" style="edgeStyle=orthogonalEdgeStyle;rounded=0;orthogonalLoop=1;jettySize=auto;html=1;exitX=0.5;exitY=1;exitDx=0;exitDy=0;entryX=0;entryY=0.5;entryDx=0;entryDy=0;" parent="1" source="PXhXnekIFpQiZYrbAUHN-38" target="PXhXnekIFpQiZYrbAUHN-80" edge="1">
          <mxGeometry relative="1" as="geometry" />
        </mxCell>
        <mxCell id="PXhXnekIFpQiZYrbAUHN-38" value="number = number + &quot;0&quot;;" style="ellipse;whiteSpace=wrap;html=1;aspect=fixed;fillColor=#dae8fc;strokeColor=#6c8ebf;" parent="1" vertex="1">
          <mxGeometry y="970" width="80" height="80" as="geometry" />
        </mxCell>
        <mxCell id="PXhXnekIFpQiZYrbAUHN-91" style="edgeStyle=orthogonalEdgeStyle;rounded=0;orthogonalLoop=1;jettySize=auto;html=1;exitX=0.5;exitY=1;exitDx=0;exitDy=0;entryX=0.5;entryY=0;entryDx=0;entryDy=0;" parent="1" source="PXhXnekIFpQiZYrbAUHN-39" target="PXhXnekIFpQiZYrbAUHN-80" edge="1">
          <mxGeometry relative="1" as="geometry" />
        </mxCell>
        <mxCell id="PXhXnekIFpQiZYrbAUHN-39" value="number = number + &quot;1&quot;;" style="ellipse;whiteSpace=wrap;html=1;aspect=fixed;fillColor=#dae8fc;strokeColor=#6c8ebf;" parent="1" vertex="1">
          <mxGeometry x="90" y="970" width="80" height="80" as="geometry" />
        </mxCell>
        <mxCell id="PXhXnekIFpQiZYrbAUHN-92" style="edgeStyle=orthogonalEdgeStyle;rounded=0;orthogonalLoop=1;jettySize=auto;html=1;exitX=0.5;exitY=1;exitDx=0;exitDy=0;" parent="1" source="PXhXnekIFpQiZYrbAUHN-40" edge="1">
          <mxGeometry relative="1" as="geometry">
            <mxPoint x="450" y="1140" as="targetPoint" />
          </mxGeometry>
        </mxCell>
        <mxCell id="PXhXnekIFpQiZYrbAUHN-40" value="number = number + &quot;2&quot;;" style="ellipse;whiteSpace=wrap;html=1;aspect=fixed;fillColor=#dae8fc;strokeColor=#6c8ebf;" parent="1" vertex="1">
          <mxGeometry x="180" y="970" width="80" height="80" as="geometry" />
        </mxCell>
        <mxCell id="PXhXnekIFpQiZYrbAUHN-93" style="edgeStyle=orthogonalEdgeStyle;rounded=0;orthogonalLoop=1;jettySize=auto;html=1;exitX=0.5;exitY=1;exitDx=0;exitDy=0;" parent="1" source="PXhXnekIFpQiZYrbAUHN-41" edge="1">
          <mxGeometry relative="1" as="geometry">
            <mxPoint x="450" y="1140" as="targetPoint" />
          </mxGeometry>
        </mxCell>
        <mxCell id="PXhXnekIFpQiZYrbAUHN-41" value="number = number + &quot;3&quot;;" style="ellipse;whiteSpace=wrap;html=1;aspect=fixed;fillColor=#dae8fc;strokeColor=#6c8ebf;" parent="1" vertex="1">
          <mxGeometry x="270" y="970" width="80" height="80" as="geometry" />
        </mxCell>
        <mxCell id="PXhXnekIFpQiZYrbAUHN-94" style="edgeStyle=orthogonalEdgeStyle;rounded=0;orthogonalLoop=1;jettySize=auto;html=1;exitX=0.5;exitY=1;exitDx=0;exitDy=0;" parent="1" source="PXhXnekIFpQiZYrbAUHN-42" edge="1">
          <mxGeometry relative="1" as="geometry">
            <mxPoint x="450" y="1140" as="targetPoint" />
          </mxGeometry>
        </mxCell>
        <mxCell id="PXhXnekIFpQiZYrbAUHN-42" value="number = number + &quot;4&quot;;" style="ellipse;whiteSpace=wrap;html=1;aspect=fixed;fillColor=#dae8fc;strokeColor=#6c8ebf;" parent="1" vertex="1">
          <mxGeometry x="360" y="970" width="80" height="80" as="geometry" />
        </mxCell>
        <mxCell id="PXhXnekIFpQiZYrbAUHN-95" style="edgeStyle=orthogonalEdgeStyle;rounded=0;orthogonalLoop=1;jettySize=auto;html=1;exitX=0.5;exitY=1;exitDx=0;exitDy=0;" parent="1" source="PXhXnekIFpQiZYrbAUHN-43" edge="1">
          <mxGeometry relative="1" as="geometry">
            <mxPoint x="450" y="1140" as="targetPoint" />
          </mxGeometry>
        </mxCell>
        <mxCell id="PXhXnekIFpQiZYrbAUHN-43" value="number = number + &quot;5&quot;;" style="ellipse;whiteSpace=wrap;html=1;aspect=fixed;fillColor=#dae8fc;strokeColor=#6c8ebf;" parent="1" vertex="1">
          <mxGeometry x="450" y="970" width="80" height="80" as="geometry" />
        </mxCell>
        <mxCell id="PXhXnekIFpQiZYrbAUHN-96" style="edgeStyle=orthogonalEdgeStyle;rounded=0;orthogonalLoop=1;jettySize=auto;html=1;exitX=0.5;exitY=1;exitDx=0;exitDy=0;" parent="1" source="PXhXnekIFpQiZYrbAUHN-44" edge="1">
          <mxGeometry relative="1" as="geometry">
            <mxPoint x="450" y="1140" as="targetPoint" />
          </mxGeometry>
        </mxCell>
        <mxCell id="PXhXnekIFpQiZYrbAUHN-44" value="number = number + &quot;6&quot;;" style="ellipse;whiteSpace=wrap;html=1;aspect=fixed;fillColor=#dae8fc;strokeColor=#6c8ebf;" parent="1" vertex="1">
          <mxGeometry x="540" y="970" width="80" height="80" as="geometry" />
        </mxCell>
        <mxCell id="PXhXnekIFpQiZYrbAUHN-97" style="edgeStyle=orthogonalEdgeStyle;rounded=0;orthogonalLoop=1;jettySize=auto;html=1;exitX=0.5;exitY=1;exitDx=0;exitDy=0;" parent="1" source="PXhXnekIFpQiZYrbAUHN-45" edge="1">
          <mxGeometry relative="1" as="geometry">
            <mxPoint x="450" y="1140" as="targetPoint" />
          </mxGeometry>
        </mxCell>
        <mxCell id="PXhXnekIFpQiZYrbAUHN-45" value="number = number + &quot;7&quot;;" style="ellipse;whiteSpace=wrap;html=1;aspect=fixed;fillColor=#dae8fc;strokeColor=#6c8ebf;" parent="1" vertex="1">
          <mxGeometry x="630" y="970" width="80" height="80" as="geometry" />
        </mxCell>
        <mxCell id="PXhXnekIFpQiZYrbAUHN-98" style="edgeStyle=orthogonalEdgeStyle;rounded=0;orthogonalLoop=1;jettySize=auto;html=1;exitX=0.5;exitY=1;exitDx=0;exitDy=0;entryX=0.5;entryY=0;entryDx=0;entryDy=0;" parent="1" source="PXhXnekIFpQiZYrbAUHN-46" target="PXhXnekIFpQiZYrbAUHN-80" edge="1">
          <mxGeometry relative="1" as="geometry" />
        </mxCell>
        <mxCell id="PXhXnekIFpQiZYrbAUHN-46" value="number = number + &quot;8&quot;;" style="ellipse;whiteSpace=wrap;html=1;aspect=fixed;fillColor=#dae8fc;strokeColor=#6c8ebf;" parent="1" vertex="1">
          <mxGeometry x="720" y="970" width="80" height="80" as="geometry" />
        </mxCell>
        <mxCell id="PXhXnekIFpQiZYrbAUHN-99" style="edgeStyle=orthogonalEdgeStyle;rounded=0;orthogonalLoop=1;jettySize=auto;html=1;exitX=0.5;exitY=1;exitDx=0;exitDy=0;entryX=0.5;entryY=0;entryDx=0;entryDy=0;" parent="1" source="PXhXnekIFpQiZYrbAUHN-47" target="PXhXnekIFpQiZYrbAUHN-80" edge="1">
          <mxGeometry relative="1" as="geometry" />
        </mxCell>
        <mxCell id="PXhXnekIFpQiZYrbAUHN-47" value="number = number + &quot;9&quot;;" style="ellipse;whiteSpace=wrap;html=1;aspect=fixed;fillColor=#dae8fc;strokeColor=#6c8ebf;" parent="1" vertex="1">
          <mxGeometry x="810" y="970" width="80" height="80" as="geometry" />
        </mxCell>
        <mxCell id="PXhXnekIFpQiZYrbAUHN-101" style="edgeStyle=orthogonalEdgeStyle;rounded=0;orthogonalLoop=1;jettySize=auto;html=1;exitX=0.5;exitY=1;exitDx=0;exitDy=0;" parent="1" source="PXhXnekIFpQiZYrbAUHN-48" target="PXhXnekIFpQiZYrbAUHN-100" edge="1">
          <mxGeometry relative="1" as="geometry" />
        </mxCell>
        <mxCell id="PXhXnekIFpQiZYrbAUHN-48" value="symbol = &quot;+&quot;;" style="ellipse;whiteSpace=wrap;html=1;aspect=fixed;fillColor=#dae8fc;strokeColor=#6c8ebf;" parent="1" vertex="1">
          <mxGeometry x="900" y="970" width="80" height="80" as="geometry" />
        </mxCell>
        <mxCell id="PXhXnekIFpQiZYrbAUHN-102" style="edgeStyle=orthogonalEdgeStyle;rounded=0;orthogonalLoop=1;jettySize=auto;html=1;exitX=0.5;exitY=1;exitDx=0;exitDy=0;" parent="1" source="PXhXnekIFpQiZYrbAUHN-49" edge="1">
          <mxGeometry relative="1" as="geometry">
            <mxPoint x="1080" y="1140" as="targetPoint" />
          </mxGeometry>
        </mxCell>
        <mxCell id="PXhXnekIFpQiZYrbAUHN-49" value="symbol = &quot;-&quot;;" style="ellipse;whiteSpace=wrap;html=1;aspect=fixed;fillColor=#dae8fc;strokeColor=#6c8ebf;" parent="1" vertex="1">
          <mxGeometry x="990" y="970" width="80" height="80" as="geometry" />
        </mxCell>
        <mxCell id="PXhXnekIFpQiZYrbAUHN-103" style="edgeStyle=orthogonalEdgeStyle;rounded=0;orthogonalLoop=1;jettySize=auto;html=1;exitX=0.5;exitY=1;exitDx=0;exitDy=0;" parent="1" source="PXhXnekIFpQiZYrbAUHN-50" edge="1">
          <mxGeometry relative="1" as="geometry">
            <mxPoint x="1080" y="1140" as="targetPoint" />
          </mxGeometry>
        </mxCell>
        <mxCell id="PXhXnekIFpQiZYrbAUHN-50" value="symbol = &quot;/&quot;;" style="ellipse;whiteSpace=wrap;html=1;aspect=fixed;fillColor=#dae8fc;strokeColor=#6c8ebf;" parent="1" vertex="1">
          <mxGeometry x="1080" y="970" width="80" height="80" as="geometry" />
        </mxCell>
        <mxCell id="PXhXnekIFpQiZYrbAUHN-104" style="edgeStyle=orthogonalEdgeStyle;rounded=0;orthogonalLoop=1;jettySize=auto;html=1;exitX=0.5;exitY=1;exitDx=0;exitDy=0;entryX=0.5;entryY=0;entryDx=0;entryDy=0;" parent="1" source="PXhXnekIFpQiZYrbAUHN-51" target="PXhXnekIFpQiZYrbAUHN-100" edge="1">
          <mxGeometry relative="1" as="geometry" />
        </mxCell>
        <mxCell id="PXhXnekIFpQiZYrbAUHN-51" value="symbol = &quot;*&quot;;" style="ellipse;whiteSpace=wrap;html=1;aspect=fixed;fillColor=#dae8fc;strokeColor=#6c8ebf;" parent="1" vertex="1">
          <mxGeometry x="1170" y="970" width="80" height="80" as="geometry" />
        </mxCell>
        <mxCell id="PXhXnekIFpQiZYrbAUHN-137" value="" style="edgeStyle=orthogonalEdgeStyle;rounded=0;orthogonalLoop=1;jettySize=auto;html=1;" parent="1" source="PXhXnekIFpQiZYrbAUHN-52" target="PXhXnekIFpQiZYrbAUHN-136" edge="1">
          <mxGeometry relative="1" as="geometry" />
        </mxCell>
        <mxCell id="PXhXnekIFpQiZYrbAUHN-52" value="symbol = &quot;&quot;;" style="ellipse;whiteSpace=wrap;html=1;aspect=fixed;fillColor=#dae8fc;strokeColor=#6c8ebf;" parent="1" vertex="1">
          <mxGeometry x="1260" y="970" width="80" height="80" as="geometry" />
        </mxCell>
        <mxCell id="PXhXnekIFpQiZYrbAUHN-108" value="" style="edgeStyle=orthogonalEdgeStyle;rounded=0;orthogonalLoop=1;jettySize=auto;html=1;" parent="1" source="PXhXnekIFpQiZYrbAUHN-53" target="PXhXnekIFpQiZYrbAUHN-107" edge="1">
          <mxGeometry relative="1" as="geometry" />
        </mxCell>
        <mxCell id="PXhXnekIFpQiZYrbAUHN-53" value="num2 = Integer&lt;br&gt;.parseInt(&lt;br&gt;number);" style="ellipse;whiteSpace=wrap;html=1;aspect=fixed;fillColor=#dae8fc;strokeColor=#6c8ebf;" parent="1" vertex="1">
          <mxGeometry x="1350" y="970" width="80" height="80" as="geometry" />
        </mxCell>
        <mxCell id="PXhXnekIFpQiZYrbAUHN-150" style="edgeStyle=orthogonalEdgeStyle;rounded=0;orthogonalLoop=1;jettySize=auto;html=1;exitX=0.5;exitY=1;exitDx=0;exitDy=0;" parent="1" source="PXhXnekIFpQiZYrbAUHN-80" target="PXhXnekIFpQiZYrbAUHN-149" edge="1">
          <mxGeometry relative="1" as="geometry" />
        </mxCell>
        <mxCell id="PXhXnekIFpQiZYrbAUHN-80" value="answerTV&lt;br&gt;.setText(&lt;br&gt;number);" style="ellipse;whiteSpace=wrap;html=1;aspect=fixed;fillColor=#dae8fc;strokeColor=#6c8ebf;" parent="1" vertex="1">
          <mxGeometry x="410" y="1140" width="80" height="80" as="geometry" />
        </mxCell>
        <mxCell id="PXhXnekIFpQiZYrbAUHN-106" value="" style="edgeStyle=orthogonalEdgeStyle;rounded=0;orthogonalLoop=1;jettySize=auto;html=1;" parent="1" source="PXhXnekIFpQiZYrbAUHN-100" target="PXhXnekIFpQiZYrbAUHN-105" edge="1">
          <mxGeometry relative="1" as="geometry" />
        </mxCell>
        <mxCell id="PXhXnekIFpQiZYrbAUHN-100" value="num1 = Integer&lt;br&gt;.parseInt(&lt;br&gt;number);" style="ellipse;whiteSpace=wrap;html=1;aspect=fixed;fillColor=#dae8fc;strokeColor=#6c8ebf;" parent="1" vertex="1">
          <mxGeometry x="1040" y="1140" width="80" height="80" as="geometry" />
        </mxCell>
        <mxCell id="PXhXnekIFpQiZYrbAUHN-151" style="edgeStyle=orthogonalEdgeStyle;rounded=0;orthogonalLoop=1;jettySize=auto;html=1;exitX=0.5;exitY=1;exitDx=0;exitDy=0;" parent="1" source="PXhXnekIFpQiZYrbAUHN-105" edge="1">
          <mxGeometry relative="1" as="geometry">
            <mxPoint x="710" y="2080" as="targetPoint" />
          </mxGeometry>
        </mxCell>
        <mxCell id="PXhXnekIFpQiZYrbAUHN-105" value="number = &quot;&quot;;" style="ellipse;whiteSpace=wrap;html=1;fillColor=#dae8fc;strokeColor=#6c8ebf;" parent="1" vertex="1">
          <mxGeometry x="1040" y="1300" width="80" height="80" as="geometry" />
        </mxCell>
        <mxCell id="PXhXnekIFpQiZYrbAUHN-113" style="edgeStyle=orthogonalEdgeStyle;rounded=0;orthogonalLoop=1;jettySize=auto;html=1;exitX=0.5;exitY=1;exitDx=0;exitDy=0;entryX=0.5;entryY=0;entryDx=0;entryDy=0;" parent="1" source="PXhXnekIFpQiZYrbAUHN-107" target="PXhXnekIFpQiZYrbAUHN-117" edge="1">
          <mxGeometry relative="1" as="geometry">
            <mxPoint x="1430" y="1290" as="targetPoint" />
          </mxGeometry>
        </mxCell>
        <mxCell id="PXhXnekIFpQiZYrbAUHN-114" style="edgeStyle=orthogonalEdgeStyle;rounded=0;orthogonalLoop=1;jettySize=auto;html=1;exitX=0.5;exitY=1;exitDx=0;exitDy=0;entryX=0.5;entryY=0;entryDx=0;entryDy=0;" parent="1" source="PXhXnekIFpQiZYrbAUHN-107" target="PXhXnekIFpQiZYrbAUHN-118" edge="1">
          <mxGeometry relative="1" as="geometry">
            <mxPoint x="1520" y="1290" as="targetPoint" />
          </mxGeometry>
        </mxCell>
        <mxCell id="PXhXnekIFpQiZYrbAUHN-115" style="edgeStyle=orthogonalEdgeStyle;rounded=0;orthogonalLoop=1;jettySize=auto;html=1;exitX=0.5;exitY=1;exitDx=0;exitDy=0;entryX=0.5;entryY=0;entryDx=0;entryDy=0;" parent="1" source="PXhXnekIFpQiZYrbAUHN-107" target="PXhXnekIFpQiZYrbAUHN-119" edge="1">
          <mxGeometry relative="1" as="geometry">
            <mxPoint x="1610" y="1290" as="targetPoint" />
          </mxGeometry>
        </mxCell>
        <mxCell id="PXhXnekIFpQiZYrbAUHN-116" style="edgeStyle=orthogonalEdgeStyle;rounded=0;orthogonalLoop=1;jettySize=auto;html=1;exitX=0.5;exitY=1;exitDx=0;exitDy=0;entryX=0.5;entryY=0;entryDx=0;entryDy=0;" parent="1" source="PXhXnekIFpQiZYrbAUHN-107" target="PXhXnekIFpQiZYrbAUHN-120" edge="1">
          <mxGeometry relative="1" as="geometry">
            <mxPoint x="1700.0000000000005" y="1290" as="targetPoint" />
          </mxGeometry>
        </mxCell>
        <mxCell id="PXhXnekIFpQiZYrbAUHN-107" value="switch(&lt;br&gt;symbol)" style="ellipse;whiteSpace=wrap;html=1;fillColor=#dae8fc;strokeColor=#6c8ebf;" parent="1" vertex="1">
          <mxGeometry x="1525" y="1140" width="80" height="80" as="geometry" />
        </mxCell>
        <mxCell id="PXhXnekIFpQiZYrbAUHN-122" value="" style="edgeStyle=orthogonalEdgeStyle;rounded=0;orthogonalLoop=1;jettySize=auto;html=1;" parent="1" source="PXhXnekIFpQiZYrbAUHN-117" target="PXhXnekIFpQiZYrbAUHN-121" edge="1">
          <mxGeometry relative="1" as="geometry" />
        </mxCell>
        <mxCell id="PXhXnekIFpQiZYrbAUHN-117" value="case &#39;+&#39;" style="ellipse;whiteSpace=wrap;html=1;aspect=fixed;fillColor=#dae8fc;strokeColor=#6c8ebf;" parent="1" vertex="1">
          <mxGeometry x="1390" y="1300" width="80" height="80" as="geometry" />
        </mxCell>
        <mxCell id="PXhXnekIFpQiZYrbAUHN-125" value="" style="edgeStyle=orthogonalEdgeStyle;rounded=0;orthogonalLoop=1;jettySize=auto;html=1;" parent="1" source="PXhXnekIFpQiZYrbAUHN-118" target="PXhXnekIFpQiZYrbAUHN-124" edge="1">
          <mxGeometry relative="1" as="geometry" />
        </mxCell>
        <mxCell id="PXhXnekIFpQiZYrbAUHN-118" value="case &#39;-&#39;" style="ellipse;whiteSpace=wrap;html=1;aspect=fixed;fillColor=#dae8fc;strokeColor=#6c8ebf;" parent="1" vertex="1">
          <mxGeometry x="1480" y="1300" width="80" height="80" as="geometry" />
        </mxCell>
        <mxCell id="PXhXnekIFpQiZYrbAUHN-128" value="" style="edgeStyle=orthogonalEdgeStyle;rounded=0;orthogonalLoop=1;jettySize=auto;html=1;" parent="1" source="PXhXnekIFpQiZYrbAUHN-119" target="PXhXnekIFpQiZYrbAUHN-127" edge="1">
          <mxGeometry relative="1" as="geometry" />
        </mxCell>
        <mxCell id="PXhXnekIFpQiZYrbAUHN-119" value="case &#39;/&#39;" style="ellipse;whiteSpace=wrap;html=1;aspect=fixed;fillColor=#dae8fc;strokeColor=#6c8ebf;" parent="1" vertex="1">
          <mxGeometry x="1570" y="1300" width="80" height="80" as="geometry" />
        </mxCell>
        <mxCell id="PXhXnekIFpQiZYrbAUHN-130" value="" style="edgeStyle=orthogonalEdgeStyle;rounded=0;orthogonalLoop=1;jettySize=auto;html=1;" parent="1" source="PXhXnekIFpQiZYrbAUHN-120" target="PXhXnekIFpQiZYrbAUHN-129" edge="1">
          <mxGeometry relative="1" as="geometry" />
        </mxCell>
        <mxCell id="PXhXnekIFpQiZYrbAUHN-120" value="case &#39;*&#39;" style="ellipse;whiteSpace=wrap;html=1;aspect=fixed;fillColor=#dae8fc;strokeColor=#6c8ebf;" parent="1" vertex="1">
          <mxGeometry x="1660" y="1300" width="80" height="80" as="geometry" />
        </mxCell>
        <mxCell id="PXhXnekIFpQiZYrbAUHN-132" style="edgeStyle=orthogonalEdgeStyle;rounded=0;orthogonalLoop=1;jettySize=auto;html=1;exitX=0.5;exitY=1;exitDx=0;exitDy=0;" parent="1" source="PXhXnekIFpQiZYrbAUHN-121" edge="1">
          <mxGeometry relative="1" as="geometry">
            <mxPoint x="1565.0000000000005" y="1610" as="targetPoint" />
          </mxGeometry>
        </mxCell>
        <mxCell id="PXhXnekIFpQiZYrbAUHN-121" value="answerTV&lt;br&gt;.setText(&lt;br&gt;&quot;answer: &quot; + (num1 + num2));" style="ellipse;whiteSpace=wrap;html=1;fillColor=#dae8fc;strokeColor=#6c8ebf;" parent="1" vertex="1">
          <mxGeometry x="1390" y="1460" width="80" height="80" as="geometry" />
        </mxCell>
        <mxCell id="PXhXnekIFpQiZYrbAUHN-133" style="edgeStyle=orthogonalEdgeStyle;rounded=0;orthogonalLoop=1;jettySize=auto;html=1;exitX=0.5;exitY=1;exitDx=0;exitDy=0;" parent="1" source="PXhXnekIFpQiZYrbAUHN-124" edge="1">
          <mxGeometry relative="1" as="geometry">
            <mxPoint x="1565" y="1610" as="targetPoint" />
          </mxGeometry>
        </mxCell>
        <mxCell id="PXhXnekIFpQiZYrbAUHN-124" value="answerTV&lt;br style=&quot;border-color: var(--border-color);&quot;&gt;.setText(&lt;br style=&quot;border-color: var(--border-color);&quot;&gt;&quot;answer: &quot; + (num1 - num2));" style="ellipse;whiteSpace=wrap;html=1;fillColor=#dae8fc;strokeColor=#6c8ebf;" parent="1" vertex="1">
          <mxGeometry x="1480" y="1460" width="80" height="80" as="geometry" />
        </mxCell>
        <mxCell id="PXhXnekIFpQiZYrbAUHN-134" style="edgeStyle=orthogonalEdgeStyle;rounded=0;orthogonalLoop=1;jettySize=auto;html=1;exitX=0.5;exitY=1;exitDx=0;exitDy=0;" parent="1" source="PXhXnekIFpQiZYrbAUHN-127" edge="1">
          <mxGeometry relative="1" as="geometry">
            <mxPoint x="1565" y="1610" as="targetPoint" />
          </mxGeometry>
        </mxCell>
        <mxCell id="PXhXnekIFpQiZYrbAUHN-127" value="answerTV&lt;br style=&quot;border-color: var(--border-color);&quot;&gt;.setText(&lt;br style=&quot;border-color: var(--border-color);&quot;&gt;&quot;answer: &quot; + (num1 / num2));" style="ellipse;whiteSpace=wrap;html=1;fillColor=#dae8fc;strokeColor=#6c8ebf;" parent="1" vertex="1">
          <mxGeometry x="1570" y="1460" width="80" height="80" as="geometry" />
        </mxCell>
        <mxCell id="PXhXnekIFpQiZYrbAUHN-135" style="edgeStyle=orthogonalEdgeStyle;rounded=0;orthogonalLoop=1;jettySize=auto;html=1;exitX=0.5;exitY=1;exitDx=0;exitDy=0;" parent="1" source="PXhXnekIFpQiZYrbAUHN-129" edge="1">
          <mxGeometry relative="1" as="geometry">
            <mxPoint x="1565" y="1610" as="targetPoint" />
          </mxGeometry>
        </mxCell>
        <mxCell id="PXhXnekIFpQiZYrbAUHN-129" value="answerTV&lt;br style=&quot;border-color: var(--border-color);&quot;&gt;.setText(&lt;br style=&quot;border-color: var(--border-color);&quot;&gt;&quot;answer: &quot; + (num1 * num2));" style="ellipse;whiteSpace=wrap;html=1;fillColor=#dae8fc;strokeColor=#6c8ebf;" parent="1" vertex="1">
          <mxGeometry x="1660" y="1460" width="80" height="80" as="geometry" />
        </mxCell>
        <mxCell id="PXhXnekIFpQiZYrbAUHN-139" value="" style="edgeStyle=orthogonalEdgeStyle;rounded=0;orthogonalLoop=1;jettySize=auto;html=1;" parent="1" source="PXhXnekIFpQiZYrbAUHN-136" target="PXhXnekIFpQiZYrbAUHN-138" edge="1">
          <mxGeometry relative="1" as="geometry" />
        </mxCell>
        <mxCell id="PXhXnekIFpQiZYrbAUHN-136" value="num1 = 0;" style="ellipse;whiteSpace=wrap;html=1;fillColor=#dae8fc;strokeColor=#6c8ebf;" parent="1" vertex="1">
          <mxGeometry x="1260" y="1140" width="80" height="80" as="geometry" />
        </mxCell>
        <mxCell id="PXhXnekIFpQiZYrbAUHN-141" value="" style="edgeStyle=orthogonalEdgeStyle;rounded=0;orthogonalLoop=1;jettySize=auto;html=1;" parent="1" source="PXhXnekIFpQiZYrbAUHN-138" target="PXhXnekIFpQiZYrbAUHN-140" edge="1">
          <mxGeometry relative="1" as="geometry" />
        </mxCell>
        <mxCell id="PXhXnekIFpQiZYrbAUHN-138" value="num2 = 0;" style="ellipse;whiteSpace=wrap;html=1;fillColor=#dae8fc;strokeColor=#6c8ebf;" parent="1" vertex="1">
          <mxGeometry x="1260" y="1300" width="80" height="80" as="geometry" />
        </mxCell>
        <mxCell id="PXhXnekIFpQiZYrbAUHN-143" value="" style="edgeStyle=orthogonalEdgeStyle;rounded=0;orthogonalLoop=1;jettySize=auto;html=1;" parent="1" source="PXhXnekIFpQiZYrbAUHN-140" target="PXhXnekIFpQiZYrbAUHN-142" edge="1">
          <mxGeometry relative="1" as="geometry" />
        </mxCell>
        <mxCell id="PXhXnekIFpQiZYrbAUHN-140" value="number = &quot;0&quot;;" style="ellipse;whiteSpace=wrap;html=1;fillColor=#dae8fc;strokeColor=#6c8ebf;" parent="1" vertex="1">
          <mxGeometry x="1260" y="1460" width="80" height="80" as="geometry" />
        </mxCell>
        <mxCell id="PXhXnekIFpQiZYrbAUHN-152" style="edgeStyle=orthogonalEdgeStyle;rounded=0;orthogonalLoop=1;jettySize=auto;html=1;exitX=0.5;exitY=1;exitDx=0;exitDy=0;" parent="1" source="PXhXnekIFpQiZYrbAUHN-142" edge="1">
          <mxGeometry relative="1" as="geometry">
            <mxPoint x="710" y="2080" as="targetPoint" />
          </mxGeometry>
        </mxCell>
        <mxCell id="PXhXnekIFpQiZYrbAUHN-142" value="answerTV&lt;br&gt;.setText(&quot;&quot;);" style="ellipse;whiteSpace=wrap;html=1;fillColor=#dae8fc;strokeColor=#6c8ebf;" parent="1" vertex="1">
          <mxGeometry x="1260" y="1610" width="80" height="80" as="geometry" />
        </mxCell>
        <mxCell id="PXhXnekIFpQiZYrbAUHN-144" value="" style="edgeStyle=orthogonalEdgeStyle;rounded=0;orthogonalLoop=1;jettySize=auto;html=1;" parent="1" source="PXhXnekIFpQiZYrbAUHN-145" target="PXhXnekIFpQiZYrbAUHN-147" edge="1">
          <mxGeometry relative="1" as="geometry" />
        </mxCell>
        <mxCell id="PXhXnekIFpQiZYrbAUHN-145" value="num1 = 0;" style="ellipse;whiteSpace=wrap;html=1;fillColor=#dae8fc;strokeColor=#6c8ebf;" parent="1" vertex="1">
          <mxGeometry x="1525" y="1610" width="80" height="80" as="geometry" />
        </mxCell>
        <mxCell id="PXhXnekIFpQiZYrbAUHN-146" value="" style="edgeStyle=orthogonalEdgeStyle;rounded=0;orthogonalLoop=1;jettySize=auto;html=1;" parent="1" source="PXhXnekIFpQiZYrbAUHN-147" target="PXhXnekIFpQiZYrbAUHN-148" edge="1">
          <mxGeometry relative="1" as="geometry" />
        </mxCell>
        <mxCell id="PXhXnekIFpQiZYrbAUHN-147" value="num2 = 0;" style="ellipse;whiteSpace=wrap;html=1;fillColor=#dae8fc;strokeColor=#6c8ebf;" parent="1" vertex="1">
          <mxGeometry x="1525" y="1770" width="80" height="80" as="geometry" />
        </mxCell>
        <mxCell id="PXhXnekIFpQiZYrbAUHN-153" style="edgeStyle=orthogonalEdgeStyle;rounded=0;orthogonalLoop=1;jettySize=auto;html=1;exitX=0.5;exitY=1;exitDx=0;exitDy=0;" parent="1" source="PXhXnekIFpQiZYrbAUHN-148" edge="1">
          <mxGeometry relative="1" as="geometry">
            <mxPoint x="710" y="2080" as="targetPoint" />
          </mxGeometry>
        </mxCell>
        <mxCell id="PXhXnekIFpQiZYrbAUHN-148" value="number = &quot;0&quot;;" style="ellipse;whiteSpace=wrap;html=1;fillColor=#dae8fc;strokeColor=#6c8ebf;" parent="1" vertex="1">
          <mxGeometry x="1525" y="1930" width="80" height="80" as="geometry" />
        </mxCell>
        <mxCell id="PXhXnekIFpQiZYrbAUHN-149" value="break;" style="ellipse;whiteSpace=wrap;html=1;aspect=fixed;fillColor=#dae8fc;strokeColor=#6c8ebf;" parent="1" vertex="1">
          <mxGeometry x="670" y="2080" width="80" height="80" as="geometry" />
        </mxCell>
      </root>
    </mxGraphModel>
  </diagram>
</mxfile>
